<svg width="20" height="21" viewBox="0 0 20 21" fill="none" xmlns="http://www.w3.org/2000/svg">
<path d="M14.4677 11.2658L9.9972 15.7157L5.5281 11.2665L1.49609 13.6855L9.99791 18.7867L18.4997 13.6855L14.4677 11.2658ZM13.5217 3.15269C12.5813 2.2116 11.3298 1.69336 9.99862 1.69336C8.66743 1.69336 7.41597 2.2116 6.47489 3.15269C4.5322 5.09537 4.5322 8.25677 6.48058 10.2051L9.99862 13.6456L13.5217 10.1994C14.4627 9.25836 14.9817 8.0069 14.9817 6.67571C14.9817 5.34452 14.4627 4.09448 13.5217 3.15269ZM9.99862 8.8049C9.43223 8.8049 8.88903 8.5799 8.48853 8.1794C8.08803 7.7789 7.86303 7.2357 7.86303 6.6693C7.86303 6.10291 8.08803 5.55971 8.48853 5.15921C8.88903 4.75871 9.43223 4.53371 9.99862 4.53371C10.565 4.53371 11.1082 4.75871 11.5087 5.15921C11.9092 5.55971 12.1342 6.10291 12.1342 6.6693C12.1342 7.2357 11.9092 7.7789 11.5087 8.1794C11.1082 8.5799 10.565 8.8049 9.99862 8.8049Z" fill="#F6F4F2"/>
</svg>
