<svg width="20" height="21" viewBox="0 0 20 21" fill="none" xmlns="http://www.w3.org/2000/svg">
<path d="M9.9987 2.19336C8.30932 2.19336 6.65788 2.69432 5.25321 3.63289C3.84854 4.57146 2.75373 5.90549 2.10723 7.46627C1.46073 9.02706 1.29158 10.7445 1.62116 12.4014C1.95074 14.0583 2.76426 15.5803 3.95883 16.7749C5.1534 17.9695 6.67538 18.783 8.33231 19.1126C9.98923 19.4422 11.7067 19.273 13.2675 18.6265C14.8282 17.98 16.1623 16.8852 17.1008 15.4805C18.0394 14.0759 18.5404 12.4244 18.5404 10.735C18.5379 8.47039 17.6372 6.2992 16.0359 4.69786C14.4345 3.09652 12.2633 2.19581 9.9987 2.19336ZM16.363 10.0232H13.8873C13.7259 8.16889 13.1704 6.3704 12.258 4.74803C13.3609 5.16514 14.3276 5.87817 15.0517 6.80878C15.7759 7.7394 16.2296 8.8516 16.363 10.0232ZM8.35087 12.1586H11.6465C11.3663 13.6497 10.8072 15.0745 9.9987 16.3583C9.19008 15.0746 8.63102 13.6497 8.35087 12.1586ZM8.25691 10.0232C8.45626 8.27487 9.05198 6.59507 9.9987 5.11176C10.9455 6.59501 11.5413 8.27484 11.7405 10.0232H8.25691ZM7.73943 4.74803C6.82701 6.3704 6.27152 8.16889 6.11011 10.0232H3.63445C3.7678 8.8516 4.22148 7.7394 4.94566 6.80878C5.66983 5.87817 6.63649 5.16514 7.73943 4.74803ZM3.75759 12.1586H6.18414C6.42365 13.761 6.95053 15.3069 7.73943 16.722C6.75154 16.3476 5.87129 15.7353 5.17671 14.9393C4.48213 14.1432 3.99469 13.1881 3.75759 12.1586ZM12.258 16.722C13.0472 15.3071 13.5741 13.7611 13.8133 12.1586H16.2398C16.0027 13.1881 15.5153 14.1432 14.8207 14.9393C14.1261 15.7353 13.2459 16.3476 12.258 16.722Z" fill="white"/>
</svg>
