<svg width="20" height="21" viewBox="0 0 20 21" fill="none" xmlns="http://www.w3.org/2000/svg">
<path d="M18.3027 6.25L12.4569 12.0958C11.805 12.746 10.922 13.1111 10.0013 13.1111C9.08065 13.1111 8.19757 12.746 7.54575 12.0958L1.69991 6.25C1.69019 6.35972 1.66797 6.45903 1.66797 6.56806V14.9014C1.66907 15.8219 2.03525 16.7045 2.68618 17.3554C3.33711 18.0063 4.21964 18.3725 5.14019 18.3736H14.8624C15.783 18.3725 16.6655 18.0063 17.3164 17.3554C17.9674 16.7045 18.3335 15.8219 18.3346 14.9014V6.56806C18.3346 6.45903 18.3124 6.35972 18.3027 6.25Z" fill="white"/>
<path d="M11.4739 11.1138L17.8169 4.77001C17.5097 4.26051 17.0763 3.83878 16.5586 3.54552C16.0409 3.25225 15.4564 3.09733 14.8614 3.0957H5.13915C4.54416 3.09733 3.95964 3.25225 3.44195 3.54552C2.92425 3.83878 2.49087 4.26051 2.18359 4.77001L8.52665 11.1138C8.91802 11.5036 9.44789 11.7224 10.0003 11.7224C10.5526 11.7224 11.0825 11.5036 11.4739 11.1138Z" fill="white"/>
</svg>
